HIERARCHY
ROOT Hips
{
	OFFSET 0.00000 0.00000 0.00000
	CHANNELS 6 Xposition Yposition Zposition Zrotation Yrotation Xrotation 
	JOINT LHipJoint
	{
		OFFSET 0 0 0
		CHANNELS 3 Zrotation Yrotation Xrotation
		JOINT LeftUpLeg
		{
			OFFSET 1.59801 -1.77853 0.57028
			CHANNELS 3 Zrotation Yrotation Xrotation
			JOINT LeftLeg
			{
				OFFSET 2.39439 -6.57854 0.00000
				CHANNELS 3 Zrotation Yrotation Xrotation
				JOINT LeftFoot
				{
					OFFSET 2.69334 -7.39989 0.00000
					CHANNELS 3 Zrotation Yrotation Xrotation
					JOINT LeftToeBase
					{
						OFFSET 0.09553 -0.26245 1.73747
						CHANNELS 3 Zrotation Yrotation Xrotation
						End Site
						{
							OFFSET 0.00000 -0.00000 0.89391
						}
					}
				}
			}
		}
	}
	JOINT RHipJoint
	{
		OFFSET 0 0 0
		CHANNELS 3 Zrotation Yrotation Xrotation
		JOINT RightUpLeg
		{
			OFFSET -1.54704 -1.77852 0.57028
			CHANNELS 3 Zrotation Yrotation Xrotation
			JOINT RightLeg
			{
				OFFSET -2.40286 -6.60180 0.00000
				CHANNELS 3 Zrotation Yrotation Xrotation
				JOINT RightFoot
				{
					OFFSET -2.63873 -7.24984 0.00000
					CHANNELS 3 Zrotation Yrotation Xrotation
					JOINT RightToeBase
					{
						OFFSET -0.15631 -0.42945 1.84436
						CHANNELS 3 Zrotation Yrotation Xrotation
						End Site
						{
							OFFSET -0.00000 -0.00000 0.95734
						}
					}
				}
			}
		}
	}
	JOINT LowerBack
	{
		OFFSET 0 0 0
		CHANNELS 3 Zrotation Yrotation Xrotation
		JOINT Spine
		{
			OFFSET -0.00436 1.89866 -0.04018
			CHANNELS 3 Zrotation Yrotation Xrotation
			JOINT Spine1
			{
				OFFSET 0.02031 1.88273 0.09634
				CHANNELS 3 Zrotation Yrotation Xrotation
				JOINT Neck
				{
					OFFSET 0 0 0
					CHANNELS 3 Zrotation Yrotation Xrotation
					JOINT Neck1
					{
						OFFSET -0.13105 1.89371 0.23083
						CHANNELS 3 Zrotation Yrotation Xrotation
						JOINT Head
						{
							OFFSET 0.17062 1.83990 -0.54062
							CHANNELS 3 Zrotation Yrotation Xrotation
							End Site
							{
								OFFSET 0.04576 1.94782 -0.21839
							}
						}
					}
				}
				JOINT LeftShoulder
				{
					OFFSET 0 0 0
					CHANNELS 3 Zrotation Yrotation Xrotation
					JOINT LeftArm
					{
						OFFSET 3.12424 1.09204 0.22226
						CHANNELS 3 Zrotation Yrotation Xrotation
						JOINT LeftForeArm
						{
							OFFSET 5.29277 -0.00000 0.00000
							CHANNELS 3 Zrotation Yrotation Xrotation
							JOINT LeftHand
							{
								OFFSET 2.85226 -0.00000 0.00000
								CHANNELS 3 Zrotation Yrotation Xrotation
								JOINT LeftFingerBase
								{
									OFFSET 0 0 0
									CHANNELS 3 Zrotation Yrotation Xrotation
									JOINT LeftHandIndex1
									{
										OFFSET 0.60210 -0.00000 0.00000
										CHANNELS 3 Zrotation Yrotation Xrotation
										End Site
										{
											OFFSET 0.48543 -0.00000 0.00000
										}
									}
								}
								JOINT LThumb
								{
									OFFSET 0 0 0
									CHANNELS 3 Zrotation Yrotation Xrotation
									End Site
									{
										OFFSET 0.49284 -0.00000 0.49284
									}
								}
							}
						}
					}
				}
				JOINT RightShoulder
				{
					OFFSET 0 0 0
					CHANNELS 3 Zrotation Yrotation Xrotation
					JOINT RightArm
					{
						OFFSET -2.91709 1.01504 0.30199
						CHANNELS 3 Zrotation Yrotation Xrotation
						JOINT RightForeArm
						{
							OFFSET -5.13304 -0.00000 0.00000
							CHANNELS 3 Zrotation Yrotation Xrotation
							JOINT RightHand
							{
								OFFSET -2.74305 -0.00000 0.00000
								CHANNELS 3 Zrotation Yrotation Xrotation
								JOINT RightFingerBase
								{
									OFFSET 0 0 0
									CHANNELS 3 Zrotation Yrotation Xrotation
									JOINT RightHandIndex1
									{
										OFFSET -0.76798 -0.00000 0.00000
										CHANNELS 3 Zrotation Yrotation Xrotation
										End Site
										{
											OFFSET -0.61916 -0.00000 0.00000
										}
									}
								}
								JOINT RThumb
								{
									OFFSET 0 0 0
									CHANNELS 3 Zrotation Yrotation Xrotation
									End Site
									{
										OFFSET -0.62862 -0.00000 0.62862
									}
								}
							}
						}
					}
				}
			}
		}
	}
}
MOTION
Frames: 11
Frame Time: .0083333
-0.1870 16.1374 -1.9030 1.9687 5.7573 5.8884 0.0000 0.0000 0.0000 -15.3071 -10.6831 -33.6720 7.2515 15.5401 49.8192 0.6626 -14.4710 -16.5520 0.7560 -5.5533 -15.4937 0.0000 0.0000 0.0000 13.7120 7.4840 -33.1023 -7.9786 -16.1035 52.4856 -2.0029 3.5195 -25.8965 -0.8935 6.0246 -16.8560 1.8633 -1.2290 24.6420 3.3612 -1.0577 14.0791 2.8111 -0.5379 1.9161 -20.0292 -12.3446 -6.3804 27.2468 -16.4622 -0.1035 10.5703 -7.7687 5.3160 0.0000 -0.0000 0.0000 -25.5325 -65.7121 37.0153 32.2549 -42.7495 -12.9136 -0.0000 0.0000 -4.7188 2.7995 23.8353 1.1320 -7.1250 0.0000 -0.0000 -26.6960 51.7991 -4.7515 0.0000 -0.0000 0.0000 27.1687 59.0542 41.4450 -38.7012 47.2813 -17.4789 0.0000 0.0000 8.6590 -13.3294 12.3002 -2.8895 7.1250 -0.0000 -0.0000 9.6542 -17.4574 6.4053
-0.1789 16.1319 -1.9003 2.1306 5.9201 5.6693 0.0000 0.0000 0.0000 -15.5761 -10.6060 -33.4113 7.2353 15.5269 49.7588 0.6564 -14.5766 -16.5421 0.7955 -5.6931 -15.8966 0.0000 0.0000 0.0000 13.5362 7.3713 -32.8553 -8.0101 -16.1267 52.5991 -2.0235 3.3768 -26.0627 -0.9379 6.1685 -17.2741 2.1663 -1.3623 24.9761 3.4272 -1.1343 13.6872 2.7371 -0.5592 1.3146 -19.8614 -12.3060 -6.2361 26.9571 -16.4563 0.1389 10.4479 -7.7679 5.3081 0.0000 -0.0000 0.0000 -25.3057 -64.6544 37.1492 32.9360 -43.2808 -13.3782 -0.0000 0.0000 -4.8862 3.0999 23.8883 1.2563 -7.1250 0.0000 -0.0000 -26.4486 51.8964 -4.7679 0.0000 -0.0000 0.0000 28.0497 58.6595 42.1969 -38.8334 47.3633 -17.5761 0.0000 0.0000 8.7540 -13.6605 12.2362 -2.9488 7.1250 -0.0000 -0.0000 9.4259 -17.5006 6.2405
-0.1705 16.1332 -1.8970 2.3295 6.0188 5.4379 0.0000 0.0000 0.0000 -15.8971 -10.4824 -33.0708 7.2039 15.5012 49.6412 0.6407 -14.7751 -16.4915 0.7822 -5.6465 -15.7621 0.0000 0.0000 0.0000 13.3193 7.2701 -32.5613 -8.0259 -16.1383 52.6559 -2.0386 3.3715 -26.1647 -0.8854 5.9983 -16.7795 2.4196 -1.4446 24.9703 3.5189 -1.1775 13.5027 2.7034 -0.5692 1.1095 -19.8830 -12.2927 -6.0241 26.8680 -16.4574 0.1391 10.4312 -7.7826 5.2619 -0.0000 0.0000 0.0000 -24.6511 -63.8528 36.7290 33.4923 -43.7050 -13.7610 -0.0000 0.0000 -4.9361 3.2136 23.7174 1.2937 -7.1250 0.0000 -0.0000 -26.2426 51.7626 -4.6363 -0.0000 0.0000 0.0000 28.4243 58.3363 42.3652 -38.9833 47.4558 -17.6865 0.0000 0.0000 8.7800 -13.8994 12.1340 -2.9776 7.1250 -0.0000 -0.0000 9.2619 -17.5884 6.1109
-0.1583 16.1380 -1.8920 2.5324 6.0493 5.1993 0.0000 0.0000 0.0000 -16.2513 -10.3363 -32.6643 7.1519 15.4585 49.4465 0.6244 -14.9262 -16.4179 0.7455 -5.5153 -15.3844 0.0000 0.0000 0.0000 13.0878 7.2082 -32.2188 -8.0246 -16.1373 52.6511 -2.0510 3.3068 -26.2605 -0.8595 5.9122 -16.5298 2.6661 -1.4874 24.6764 3.6273 -1.1937 13.4766 2.6777 -0.5671 1.2193 -19.8999 -12.3157 -5.8576 26.7838 -16.4867 0.0468 10.4070 -7.8111 5.2039 0.0000 -0.0000 0.0000 -23.9536 -63.1790 35.9962 33.9649 -44.0587 -14.0886 -0.0000 0.0000 -4.8041 3.3335 23.4528 1.3280 -7.1250 0.0000 -0.0000 -25.9777 51.5453 -4.4393 0.0000 -0.0000 0.0000 28.5340 58.0682 42.1354 -39.0849 47.5183 -17.7614 0.0000 0.0000 8.8894 -14.2539 12.1093 -3.0505 7.1250 -0.0000 -0.0000 9.0161 -17.5900 5.9442
-0.1417 16.1442 -1.8810 2.7607 5.9947 4.9845 0.0000 0.0000 0.0000 -16.6522 -10.1508 -32.2253 7.0907 15.4078 49.2166 0.6227 -15.0227 -16.4443 0.7047 -5.3655 -14.9540 0.0000 0.0000 0.0000 12.8119 7.1359 -31.8704 -8.0100 -16.1266 52.5986 -2.0657 3.3520 -26.3489 -0.8789 5.9766 -16.7166 2.8704 -1.5000 24.2968 3.7094 -1.1881 13.4477 2.6401 -0.5555 1.3662 -19.8546 -12.3440 -5.8003 26.6553 -16.5266 0.0632 10.3491 -7.8335 5.1882 0.0000 0.0000 0.0000 -23.3278 -62.3806 35.2612 34.5397 -44.4807 -14.4899 -0.0000 0.0000 -4.5729 3.4868 23.3271 1.3821 -7.1250 0.0000 -0.0000 -25.7636 51.4577 -4.3405 0.0000 0.0000 0.0000 28.7346 57.8052 41.9185 -39.2232 47.6029 -17.8635 0.0000 0.0000 8.9780 -14.4495 11.8429 -3.0272 7.1250 -0.0000 -0.0000 8.8836 -17.8477 5.8038
-0.1218 16.1519 -1.8635 3.0031 5.7900 4.8113 0.0000 0.0000 0.0000 -17.0810 -9.8248 -31.8429 7.0292 15.3564 48.9847 0.6122 -15.1188 -16.3976 0.6579 -5.1879 -14.4451 0.0000 0.0000 0.0000 12.5029 7.1998 -31.5209 -7.9926 -16.1138 52.5359 -2.0758 3.4306 -26.4009 -0.8598 5.9130 -16.5323 3.0558 -1.4612 23.8248 3.7671 -1.1292 13.3817 2.5731 -0.5176 1.5143 -19.8734 -12.3526 -5.6489 26.5520 -16.5554 0.1036 10.3189 -7.8560 5.1691 0.0000 -0.0000 0.0000 -22.6829 -61.5404 34.6075 35.1465 -44.9164 -14.9167 -0.0000 0.0000 -4.2344 3.6039 23.2284 1.4230 -7.1250 0.0000 -0.0000 -25.5989 51.3881 -4.2638 0.0000 -0.0000 0.0000 28.8969 57.4655 41.8192 -39.4680 47.7515 -18.0444 0.0000 0.0000 8.8498 -14.7954 11.5029 -3.0151 7.1250 -0.0000 -0.0000 8.6469 -18.1713 5.5831
-0.1054 16.1577 -1.8511 3.0570 5.6777 4.5955 0.0000 0.0000 0.0000 -17.2751 -9.5701 -31.4832 6.9763 15.3119 48.7848 0.5948 -15.1606 -16.2710 0.5998 -4.9578 -13.7882 0.0000 0.0000 0.0000 12.4183 7.2682 -31.1453 -7.9719 -16.0986 52.4615 -2.0846 3.3629 -26.4724 -0.8044 5.7242 -15.9863 3.4147 -1.4686 23.4325 3.8848 -1.0915 13.3209 2.4800 -0.4829 1.6326 -19.8815 -12.3887 -5.6664 26.3368 -16.6104 0.2760 10.2331 -7.8766 5.2094 0.0000 0.0000 0.0000 -21.8714 -60.7264 33.8060 35.7174 -45.3177 -15.3212 -0.0000 0.0000 -3.8699 3.9503 23.0712 1.5501 -7.1250 0.0000 -0.0000 -25.1893 51.3028 -4.1328 0.0000 0.0000 0.0000 28.8983 57.1231 41.6104 -39.8176 47.9614 -18.3036 0.0000 0.0000 8.6302 -15.1064 11.3902 -3.0516 7.1250 -0.0000 -0.0000 8.4309 -18.2661 5.4226
-0.0925 16.1624 -1.8428 3.2274 5.6504 4.3789 0.0000 0.0000 0.0000 -17.5885 -9.3996 -31.1104 6.9275 15.2706 48.5998 0.5957 -15.1393 -16.2692 0.5993 -4.9558 -13.7825 0.0000 0.0000 0.0000 12.2182 7.2429 -30.8058 -7.9591 -16.0891 52.4154 -2.0895 3.1857 -26.5403 -0.8254 5.7967 -16.1956 3.5993 -1.4815 23.2022 3.9824 -1.0817 13.2031 2.4738 -0.4716 1.6120 -19.6502 -12.4301 -5.8154 25.9019 -16.6711 0.5797 10.0214 -7.8889 5.2640 0.0000 0.0000 0.0000 -20.9841 -59.8116 32.9381 36.3495 -45.7521 -15.7723 -0.0000 0.0000 -3.4956 4.3471 22.7971 1.6871 -7.1250 0.0000 -0.0000 -24.6694 51.1190 -3.9221 0.0000 0.0000 0.0000 29.1381 56.7844 41.3958 -40.1756 48.1736 -18.5700 0.0000 0.0000 8.6100 -14.9574 11.7174 -3.1055 7.1250 -0.0000 -0.0000 8.5312 -17.9420 5.5503
-0.0796 16.1674 -1.8315 3.4743 5.5960 4.1111 0.0000 0.0000 0.0000 -18.0011 -9.1943 -30.6461 6.8799 15.2299 48.4188 0.5856 -15.2347 -16.2260 0.5600 -4.7931 -13.3195 0.0000 0.0000 0.0000 11.9383 7.2222 -30.3903 -7.9484 -16.0812 52.3766 -2.0930 3.0726 -26.5868 -0.8376 5.8382 -16.3158 3.6601 -1.4692 23.0453 4.0764 -1.0567 13.0496 2.5322 -0.4603 1.5169 -19.5763 -12.4525 -5.6651 25.6987 -16.7244 0.6696 9.9368 -7.9228 5.2449 -0.0000 -0.0000 0.0000 -20.2211 -58.7521 32.1460 37.1373 -46.2794 -16.3392 -0.0000 0.0000 -3.2306 4.4371 22.7730 1.7205 -7.1250 0.0000 -0.0000 -24.5726 51.1116 -3.9004 -0.0000 -0.0000 0.0000 29.5956 56.3864 41.2394 -40.4328 48.3243 -18.7619 0.0000 0.0000 8.7043 -14.9774 11.9502 -3.1706 7.1250 -0.0000 -0.0000 8.5149 -17.7032 5.5846
-0.0666 16.1673 -1.8213 3.6908 5.5602 3.8576 0.0000 0.0000 0.0000 -18.3618 -9.0154 -30.2253 6.8325 15.1892 48.2379 0.5785 -15.3079 -16.1992 0.5474 -4.7401 -13.1688 0.0000 0.0000 0.0000 11.6912 7.1744 -30.0217 -7.9401 -16.0750 52.3468 -2.1017 3.0655 -26.6459 -0.8497 5.8792 -16.4344 3.7439 -1.4514 22.7319 4.1984 -1.0348 12.9793 2.6049 -0.4490 1.5920 -19.5249 -12.5069 -5.5944 25.4890 -16.7951 0.6841 9.8457 -7.9627 5.2229 0.0000 -0.0000 0.0000 -19.3045 -57.7329 31.1702 38.0364 -46.8625 -16.9922 -0.0000 0.0000 -3.0620 4.6978 22.8243 1.8258 -7.1250 0.0000 -0.0000 -24.3587 51.2001 -3.9179 0.0000 -0.0000 0.0000 29.6958 56.0263 40.8922 -40.7141 48.4873 -18.9722 0.0000 0.0000 8.6668 -15.2226 11.9597 -3.2274 7.1250 -0.0000 -0.0000 8.3441 -17.6767 5.4751
-0.0533 16.1698 -1.8091 3.8894 5.5302 3.6208 0.0000 0.0000 0.0000 -18.6986 -8.8737 -29.7956 6.7792 15.1431 48.0341 0.5914 -15.2270 -16.2710 0.5824 -4.8865 -13.5853 0.0000 0.0000 0.0000 11.4613 7.0937 -29.6695 -7.9271 -16.0654 52.2997 -2.1199 3.2066 -26.7364 -0.8272 5.8027 -16.2130 3.7692 -1.4290 22.3145 4.3615 -1.0261 12.9250 2.7554 -0.4489 1.7385 -19.5168 -12.5538 -5.6184 25.1752 -16.8465 0.8083 9.7239 -7.9856 5.2361 -0.0000 -0.0000 0.0000 -18.4636 -56.7341 30.1444 38.7554 -47.3150 -17.5188 -0.0000 0.0000 -2.6880 5.1659 22.4253 1.9753 -7.1250 0.0000 -0.0000 -23.7086 50.9117 -3.6282 -0.0000 -0.0000 0.0000 29.6332 55.6735 40.5244 -41.0533 48.6817 -19.2266 0.0000 0.0000 8.5747 -15.4470 12.0473 -3.3009 7.1250 -0.0000 -0.0000 8.1874 -17.5716 5.3892
